{"title":"Gnomeo And Juliet 2011 XViD DVDRip - DTRG - SAFCuk009","uid":6367070,"size":709679520,"categoryP":"video","categoryS":"movies","magnet":"?xt=urn:btih:4af7d9076360e4a10ca62dcf98553101974bb40b&amp;dn=Gnomeo+And+Juliet+2011+XViD+DVDRip+-+DTRG+-+SAFCuk009&amp;tr=udp%3A%2F%2Ftracker.openbittorrent.com%3A80&amp;tr=udp%3A%2F%2Fopen.demonii.com%3A1337&amp;tr=udp%3A%2F%2Ftracker.coppersurfer.tk%3A6969&amp;tr=udp%3A%2F%2Fexodus.desync.com%3A6969","seeders":1,"leechers":0,"uploader":"SAFCukO09","files":3,"time":1304546659,"description":"Format : AVI\nFormat/Info : Audio Video Interleave\nFile size : 677 MiB\nDuration : 1h 22mn\nOverall bit rate : 1 148 Kbps\nWriting library : MPlayer\n\nVideo\nID : 0\nFormat : MPEG-4 Visual\nFormat profile : Advanced Simple@L5\nFormat settings, BVOP : Yes\nFormat settings, QPel : No\nFormat settings, GMC : No warppoints\nFormat settings, Matrix : Default (MPEG)\nCodec ID : XVID\nCodec ID/Hint : XviD\nDuration : 1h 22mn\nBit rate : 1 008 Kbps\nWidth : 624 pixels\nHeight : 336 pixels\nDisplay aspect ratio : 1.857\nFrame rate : 23.976 fps\nColor space : YUV\nChroma subsampling : 4:2:0\nBit depth : 8 bits\nScan type : Progressive\nBits/(Pixel*Frame) : 0.201\nStream size : 595 MiB (88%)\nWriting library : XviD 1.2.1 (UTC 2008-12-04)\n\nAudio\nID : 1\nFormat : MPEG Audio\nFormat version : Version 1\nFormat profile : Layer 3\nMode : Joint stereo\nCodec ID : 55\nCodec ID/Hint : MP3\nDuration : 1h 22mn\nBit rate mode : Variable\nBit rate : 128 Kbps\nChannel(s) : 2 channels\nSampling rate : 48.0 KHz\nStream size : 74.6 MiB (11%)\nAlignment : Aligned on interleaves\nInterleave, duration : 24 ms (0.58 video frame)\nInterleave, preload duration : 127 ms\n\n\n\n &lt;a href=&quot;\nhttp://www.imdb.com/title/tt0377981/&quot; rel=&quot;nofollow&quot; target=&quot;_NEW&quot;&gt;\nhttp://www.imdb.com/title/tt0377981/&lt;/a&gt;\n\n\n\n\n\n\n\n\nUsers: 5.7/10 (3,454 votes) 52 reviews | Critics: 132 reviews Metascore: 53/100 (based on 28 reviews from Metacritic.com)\n\nThe neighboring gardens of Montague and Capulet are at war, but the gnomes, Gnomeo and Juliet, are in love.\nDirector:\nKelly Asbury\nWriters:\nRob Sprackling (story), John R. Smith (story), and 14 more credits Ã‚Â»\nStars:\nJames McAvoy, Emily Blunt and Maggie Smith\n\n\n\n\n\n\n\n\n\n\n\n\n\n\n\nSame again straightforward encode with syncfix ..Enjoy !\n\n\n\nGreetz to Imagine ,Flawl3ss,DiLLoN,BDK,NOiR,TOXiCiNK,THC,Ez,Rx,Boobyblue,TaRiQ786,LKRG","torrent":{"xt":"urn:btih:4af7d9076360e4a10ca62dcf98553101974bb40b","amp;dn":"Gnomeo+And+Juliet+2011+XViD+DVDRip+-+DTRG+-+SAFCuk009","amp;tr":["udp%3A%2F%2Ftracker.openbittorrent.com%3A80","udp%3A%2F%2Fopen.demonii.com%3A1337","udp%3A%2F%2Ftracker.coppersurfer.tk%3A6969","udp%3A%2F%2Fexodus.desync.com%3A6969"],"infoHash":"4af7d9076360e4a10ca62dcf98553101974bb40b","infoHashBuffer":{"type":"Buffer","data":[74,247,217,7,99,96,228,161,12,166,45,207,152,85,49,1,151,75,180,11]},"announce":[],"urlList":[]}}